<?xml version="1.0" encoding="UTF-8"?>
<svg width="32" height="32" viewBox="0 0 32 32" fill="none" xmlns="http://www.w3.org/2000/svg">
  <!-- Background Circle -->
  <circle cx="16" cy="16" r="16" fill="#1DB954"/>
  
  <!-- Music Note -->
  <path d="M22 8L22 20C22 21.6569 20.6569 23 19 23C17.3431 23 16 21.6569 16 20C16 18.3431 17.3431 17 19 17C19.3506 17 19.6872 17.0602 20 17.1707L20 12L12 14L12 22C12 23.6569 10.6569 25 9 25C7.34315 25 6 23.6569 6 22C6 20.3431 7.34315 19 9 19C9.35064 19 9.68722 19.0602 10 19.1707L10 10C10 9.44772 10.4477 9 11 9L21 7C21.5523 7 22 7.44772 22 8Z" fill="white"/>
</svg> 